<svg xmlns="http://www.w3.org/2000/svg" width="144" height="33" viewBox="0 0 144 33"><title>Sault</title><path id="text" d="M139,27.93h4.24a0.76,0.76,0,0,0,.58-0.24,0.8,0.8,0,0,0,.23-0.56V22.9a0.84,0.84,0,0,0-.23-0.59,0.76,0.76,0,0,0-.58-0.24H139a0.82,0.82,0,0,0-.84.81s0,0,0,0v4.23a0.75,0.75,0,0,0,.24.58,0.84,0.84,0,0,0,.59.22h0Zm-13,0h4.47A0.84,0.84,0,0,0,131,27.7a0.75,0.75,0,0,0,.24-0.58V10.74h5.65a0.84,0.84,0,0,0,.59-0.22,0.75,0.75,0,0,0,.24-0.58V6.35A0.82,0.82,0,0,0,137,5.52H119.49a0.82,0.82,0,0,0-.84.81s0,0,0,0V9.94a0.75,0.75,0,0,0,.24.58,0.84,0.84,0,0,0,.59.22h5.65V27.13a0.75,0.75,0,0,0,.24.58,0.84,0.84,0,0,0,.59.22h0Zm-20.85,0h14.94a0.84,0.84,0,0,0,.59-0.22,0.75,0.75,0,0,0,.24-0.58V23.73a0.82,0.82,0,0,0-.81-0.83h-9.66V6.32a0.77,0.77,0,0,0-.74-0.8h-4.56a0.8,0.8,0,0,0-.56.22,0.75,0.75,0,0,0-.24.58V27.13a0.82,0.82,0,0,0,.8.8h0Zm-14.65.32A10.54,10.54,0,0,0,97.59,26q2.57-2.21,2.57-6.63V6.35a0.82,0.82,0,0,0-.81-0.83H95a0.82,0.82,0,0,0-.84.81s0,0,0,0v13a4.17,4.17,0,0,1-.95,3,4.18,4.18,0,0,1-5.43,0,4.16,4.16,0,0,1-.95-3v-13A0.82,0.82,0,0,0,86,5.52H81.56a0.76,0.76,0,0,0-.58.24,0.83,0.83,0,0,0-.22.59V19.41q0,4.42,2.59,6.63a10.66,10.66,0,0,0,7.15,2.21h0Zm-33.37-.32h4.18a1.11,1.11,0,0,0,1.09-.7l1.16-3.1H72l1.16,3.1a1.11,1.11,0,0,0,1.09.7h4.18a0.72,0.72,0,0,0,.67-0.67A1,1,0,0,0,79,27L71.54,6.45a1.25,1.25,0,0,0-1.29-.93h-5A1.25,1.25,0,0,0,64,6.45L56.47,27a1,1,0,0,0,0,.29,0.72,0.72,0,0,0,.68.67h0ZM67.75,11.15l2.86,8.16H64.89ZM45.84,28.25a14.14,14.14,0,0,0,5.07-.85,7.83,7.83,0,0,0,3.47-2.45,6,6,0,0,0,1.25-3.78,5.87,5.87,0,0,0-.85-3.28,6.05,6.05,0,0,0-2.63-2.11,20.64,20.64,0,0,0-4.8-1.36,14.62,14.62,0,0,1-3.6-1.07,1.61,1.61,0,0,1-1-1.46,1.57,1.57,0,0,1,.74-1.41A3.82,3.82,0,0,1,45.62,10a3.93,3.93,0,0,1,2,.46,2,2,0,0,1,1,1.14,1.24,1.24,0,0,0,1.09.58h4.5A0.63,0.63,0,0,0,54.67,12a0.7,0.7,0,0,0,.19-0.5,5.15,5.15,0,0,0-1.17-2.86,8.39,8.39,0,0,0-3.18-2.43,11.4,11.4,0,0,0-4.9-1,12.07,12.07,0,0,0-4.74.86,7.2,7.2,0,0,0-3.15,2.42A5.94,5.94,0,0,0,36.62,12a5.45,5.45,0,0,0,1.93,4.48,13.32,13.32,0,0,0,5.81,2.34q2,0.42,3.05.75a4.28,4.28,0,0,1,1.54.77,1.42,1.42,0,0,1,.48,1.1,1.62,1.62,0,0,1-.93,1.46,5.48,5.48,0,0,1-2.67.53,4.81,4.81,0,0,1-2.36-.5,3.22,3.22,0,0,1-1.3-1.26,2.08,2.08,0,0,0-.53-0.45A1.34,1.34,0,0,0,41,21.1H36.75a0.71,0.71,0,0,0-.5.19,0.62,0.62,0,0,0-.21.48A5.51,5.51,0,0,0,37.23,25a7.72,7.72,0,0,0,3.31,2.37,14,14,0,0,0,5.3.9h0Z" style="fill:#ffffff"/><path id="symbol1" d="M3.49,22a13.29,13.29,0,0,1,.2-18.17,11.86,11.86,0,0,1,16.74-.77q0.3,0.28.59,0.57" style="fill:#727f88"/><path id="symbol2" d="M18.41,11.7l-18,17.76a12.74,12.74,0,0,0,17.83-.2,12.29,12.29,0,0,0,.36-17.4Z" style="fill:#7cfcfc"/></svg>