<?xml version="1.0" encoding="utf-8"?>
<!-- Generator: Adobe Illustrator 21.1.0, SVG Export Plug-In . SVG Version: 6.00 Build 0)  -->
<svg version="1.1" id="Layer_1" xmlns="http://www.w3.org/2000/svg" xmlns:xlink="http://www.w3.org/1999/xlink" x="0px" y="0px"
	 viewBox="0 0 1765.3 457.9" style="enable-background:new 0 0 1765.3 457.9;" xml:space="preserve">
<style type="text/css">
	.st0{fill:#644CE9;}
	.st1{fill:#DBE1E6;}
	.st2{fill:#262A2C;}
	.st3{font-family:'Heavitas';}
	.st4{font-size:402.86px;}
	.st5{letter-spacing:23;}
</style>
<title>zeiq-logo-1</title>
<rect y="8.1" class="st0" width="382.9" height="76.6"/>
<rect x="306.1" y="8.1" class="st0" width="76.8" height="267.9"/>
<rect y="122.7" class="st1" width="76.2" height="268.2"/>
<rect y="314" class="st1" width="382.9" height="76.9"/>
<polygon class="st1" points="114.8,122.7 114.8,248.6 240.6,122.7 "/>
<polygon class="st0" points="141.2,276 267.9,149.3 267.9,276 "/>
<text transform="matrix(1 0 0 1 544.46 349.0801)" class="st2 st3 st4 st5">ZEIQ</text>
<path class="st2" d="M1643.3,271.1h56c6.1,0,11,4.9,11,11v56c0,6.1-4.9,11-11,11h-56c-6.1,0-11-4.9-11-11v-56
	C1632.3,276,1637.2,271.1,1643.3,271.1z"/>
</svg>
